<?xml version="1.0" standalone="no"?><!DOCTYPE svg PUBLIC "-//W3C//DTD SVG 1.1//EN" "http://www.w3.org/Graphics/SVG/1.1/DTD/svg11.dtd"><svg t="1590069197444" class="icon" viewBox="0 0 1314 1024" version="1.1" xmlns="http://www.w3.org/2000/svg" p-id="7455" xmlns:xlink="http://www.w3.org/1999/xlink" width="164.25" height="128"><defs><style type="text/css"></style></defs><path d="M63.212986 8.563919a44.858622 44.858622 0 0 0-44.858622 44.858622 44.858622 44.858622 0 0 0 44.858622 44.858622 44.858622 44.858622 0 0 0 44.858622-44.858622A42.411788 42.411788 0 0 0 63.212986 8.563919zM335.627163 61.578654a30.99323 30.99323 0 0 0 30.99323-30.99323 30.177618 30.177618 0 1 0-61.170848 0 30.177618 30.177618 0 0 0 30.177618 30.177619zM14.276307 360.092393a13.865392 13.865392 0 1 0 0 28.546396 13.865392 13.865392 0 0 0 14.681004-13.865392 13.049781 13.049781 0 0 0-14.681004-14.681004zM81.972046 606.407009a13.865392 13.865392 0 1 0 13.865392 13.865392 13.865392 13.865392 0 0 0-13.865392-13.865392zM1098.223739 802.969335a46.489845 46.489845 0 1 0 46.489844 46.489845 47.305456 47.305456 0 0 0-46.489844-46.489845zM1268.686502 634.953405a17.943449 17.943449 0 1 0 17.943449-17.943449 17.943449 17.943449 0 0 0-17.943449 17.943449z m0 0M979.144487 189.62963a13.049781 13.049781 0 0 0 12.23417-12.23417 12.23417 12.23417 0 0 0-24.468339 0 11.418558 11.418558 0 0 0 12.234169 12.23417zM1207.515654 177.39546a32.624452 32.624452 0 1 0 32.624452 32.624452 31.808841 31.808841 0 0 0-32.624452-32.624452z" fill="#cdcdcd" p-id="7456"></path><path d="M506.905539 555.023497a11.418558 11.418558 0 0 1 12.234169 16.312226 77.483074 77.483074 0 0 0 154.150538 0 11.418558 11.418558 0 0 1 12.23417-16.312226h97.873357l-63.617682-123.97292H467.756196L408.21657 555.023497h97.873357zM455.522026 413.107129v-70.958184L347.861333 555.023497h40.780566l66.880127-141.916368zM709.992755 327.467941H470.20303v89.717244h243.867781l-4.078056-89.717244z" fill="#cdcdcd" p-id="7457"></path><path d="M595.807171 45.266428a489.366786 489.366786 0 1 0 489.366787 489.366786 489.366786 489.366786 0 0 0-489.366787-489.366786zM874.746239 571.335723v176.987654a11.418558 11.418558 0 0 1-12.234169 12.23417H326.655439a11.418558 11.418558 0 0 1-12.23417-12.23417V571.335723a7.340502 7.340502 0 0 1 0-5.709279l128.866587-256.101952a11.418558 11.418558 0 0 1 12.23417-8.156113H734.461094a11.418558 11.418558 0 0 1 12.23417 8.156113l129.682198 253.655118a7.340502 7.340502 0 0 1-1.631223 8.156113z" fill="#cdcdcd" p-id="7458"></path><path d="M723.858147 327.467941l4.078057 81.561131 75.03624 145.994425h39.149343l-114.185583-227.555556h-4.078057zM595.807171 670.840303a101.135802 101.135802 0 0 1-99.504579-89.717244H342.152054V734.457985h510.57268V581.93867h-154.966149A104.398248 104.398248 0 0 1 595.807171 670.840303z" fill="#cdcdcd" p-id="7459"></path></svg>