<?xml version="1.0" standalone="no"?><!DOCTYPE svg PUBLIC "-//W3C//DTD SVG 1.1//EN" "http://www.w3.org/Graphics/SVG/1.1/DTD/svg11.dtd"><svg t="1588931780935" class="icon" viewBox="0 0 1024 1024" version="1.1" xmlns="http://www.w3.org/2000/svg" p-id="4709" width="32" height="32" xmlns:xlink="http://www.w3.org/1999/xlink"><defs><style type="text/css"></style></defs><path d="M288 128C235.328 128 192 171.328 192 224v576c0 52.672 43.328 96 96 96h208.768a288 288 0 0 0 239.232 128c158.72 0 288-129.28 288-288 0-124.864-80.512-230.592-192-270.4V338.752L621.248 128H288z m0 64H576v192h192v67.2c-10.624-1.152-21.056-3.2-32-3.2-10.944 0-21.376 2.048-32 3.2V448H448v64h109.248a289.92 289.92 0 0 0-60.48 64H448v64h17.6A284.352 284.352 0 0 0 448 736c0 33.792 6.848 65.856 17.6 96H288a31.552 31.552 0 0 1-32-32v-576c0-17.984 14.016-32 32-32z m352 45.248L722.752 320H640V237.248zM320 448v64h64V448H320z m416 64c124.096 0 224 99.904 224 224S860.096 960 736 960A223.488 223.488 0 0 1 512 736C512 611.904 611.904 512 736 512zM320 576v64h64V576H320z m384 0v128H576v64h128v128h64v-128h128v-64h-128V576h-64z" fill="#515151" p-id="4710"></path></svg>